<?xml version="1.0" encoding="iso-8859-1"?>
<!-- Generator: Adobe Illustrator 19.0.0, SVG Export Plug-In . SVG Version: 6.00 Build 0)  -->
<svg version="1.1" id="Capa_1" xmlns="http://www.w3.org/2000/svg" xmlns:xlink="http://www.w3.org/1999/xlink" x="0px" y="0px"
	 viewBox="0 0 464 464" style="enable-background:new 0 0 464 464;" xml:space="preserve">
<path style="fill:#E6E6E6;" d="M368,0H72C58.745,0,48,10.745,48,24v440h344c13.255,0,24-10.745,24-24l0,0V24
	c0-13.255,10.745-24,24-24H368z"/>
<g>
	<path style="fill:#0071BC;" d="M392,464c-13.255,0-24-10.745-24-24l0,0v-16H0v16c0,13.255,10.745,24,24,24l0,0H392z"/>
	<path style="fill:#0071BC;" d="M416,120V24c0-13.255,10.745-24,24-24s24,10.745,24,24v96H416z"/>
</g>
<g>
	<path style="fill:#999999;" d="M80,224h136v16H80V224z"/>
	<path style="fill:#999999;" d="M80,256h104v16H80V256z"/>
	<path style="fill:#999999;" d="M128,192h88v16h-88V192z"/>
	<path style="fill:#999999;" d="M96,192h16v16H96V192z"/>
	<path style="fill:#999999;" d="M256,376h128v16H256V376z"/>
	<path style="fill:#999999;" d="M304,344h80v16h-80V344z"/>
	<path style="fill:#999999;" d="M272,344h16v16h-16V344z"/>
	<path style="fill:#999999;" d="M296,104h88v16h-88V104z"/>
	<path style="fill:#999999;" d="M328,72h56v16h-56V72z"/>
	<path style="fill:#999999;" d="M296,72h16v16h-16V72z"/>
</g>
<path style="fill:#29ABE2;" d="M216,59.056V40h-16v19.056l-24,12l-24-12V40h-16v19.056L108.424,72.84
	c-2.712,1.355-4.425,4.128-4.424,7.16v32H88v16h22.112L136,140.944V160h16v-19.056l24-12l24,12V160h16v-19.056l27.576-13.744
	c2.725-1.362,4.441-4.153,4.424-7.2V88h16V72h-22.112L216,59.056z M120,84.944l24-12l24,12v30.112l-24,12l-24-12V84.944z
	 M232,115.056l-24,12l-24-12V84.944l24-12l24,12V115.056z"/>
<g>
	<path style="fill:#0071BC;" d="M248,32h16v16h-16V32z"/>
	<path style="fill:#0071BC;" d="M280,32h16v16h-16V32z"/>
</g>
<path style="fill:#29ABE2;" d="M80,352h16v40H80V352z"/>
<path style="fill:#FBB03B;" d="M112,328h16v64h-16V328z"/>
<path style="fill:#29ABE2;" d="M144,352h16v40h-16V352z"/>
<path style="fill:#FBB03B;" d="M176,320h16v72h-16V320z"/>
<path style="fill:#29ABE2;" d="M208,368h16v24h-16V368z"/>
<g>
	<path style="fill:#F7931E;" d="M283.208,215.68l48.646-36.485l9.6,12.8l-48.646,36.485L283.208,215.68z"/>
	<path style="fill:#F7931E;" d="M285.026,244.232l5.946-14.863l57.193,22.881l-5.946,14.863L285.026,244.232z"/>
</g>
<g>
	<circle style="fill:#FBB03B;" cx="272" cy="232" r="24"/>
	<circle style="fill:#FBB03B;" cx="352" cy="272" r="24"/>
	<circle style="fill:#FBB03B;" cx="352" cy="176" r="24"/>
</g>
<g>
</g>
<g>
</g>
<g>
</g>
<g>
</g>
<g>
</g>
<g>
</g>
<g>
</g>
<g>
</g>
<g>
</g>
<g>
</g>
<g>
</g>
<g>
</g>
<g>
</g>
<g>
</g>
<g>
</g>
</svg>
